<svg width="255" height="30" viewBox="0 0 255 30" fill="none" xmlns="http://www.w3.org/2000/svg">
  <path d="M17.843.509q.367-.51 1.046-.509.565 0 .961.396t.396.961q0 .538-.283.82l-.028.029-6.843 9.218a3.6 3.6 0 0 1-1.272 1.06 3.64 3.64 0 0 1-1.697.41 3.7 3.7 0 0 1-1.612-.367 3.3 3.3 0 0 1-1.244-1.018L.396 2.319q-.141-.226-.269-.453A1 1 0 0 1 0 1.357Q0 .792.396.396T1.357 0q.708 0 1.075.537L9.02 9.331q.198.227.495.495.297.27.608.269.311 0 .608-.269t.467-.495zm21.773 9.105q.961 0 1.583-.353.622-.354.976-.863t.48-1.117q.128-.607.128-1.117 0-.508-.127-1.117a3 3 0 0 0-.481-1.116 2.9 2.9 0 0 0-.976-.863q-.621-.353-1.583-.353H28.192q-.99 0-1.598.353a2.95 2.95 0 0 0-.961.863q-.354.508-.48 1.116a5.5 5.5 0 0 0-.128 1.117q0 .51.127 1.117.127.609.481 1.117.354.51.961.863.608.353 1.598.353zm5.797-3.45q0 1.075-.354 2.164a6.6 6.6 0 0 1-1.032 1.979q-.679.892-1.64 1.456-.962.566-2.177.566H27.316q-1.16 0-2.065-.566a5.4 5.4 0 0 1-1.54-1.456 6.9 6.9 0 0 1-.976-1.994 7.3 7.3 0 0 1-.34-2.149q0-1.045.354-2.149.353-1.103 1.032-1.993.678-.891 1.64-1.456Q26.382 0 27.598 0h12.895q1.13 0 2.05.566a5.3 5.3 0 0 1 1.555 1.456q.636.89.975 1.993.34 1.103.34 2.15m6.701 6.165a3.92 3.92 0 0 1-2.729-1.103 3.9 3.9 0 0 1-.834-1.188 3.5 3.5 0 0 1-.31-1.47v-7.21q0-.566.395-.962.396-.396.961-.396.538 0 .948.396t.41.961v7.21q0 .426.325.736t.75.311h16.965q.566 0 .962.396t.396.961-.396.962a1.3 1.3 0 0 1-.962.396zm23.781-6.165q0 .51.127 1.117.127.609.48 1.117.355.51.962.863.609.353 1.598.353h11.254q.962 0 1.584-.353.622-.354.975-.863.354-.509.48-1.117.128-.607.128-1.117V1.386q0-.566.396-.962t.961-.396.962.396.396.962v4.778q0 1.075-.354 2.164a6.6 6.6 0 0 1-1.032 1.979q-.678.892-1.64 1.456-.961.566-2.177.566H78.1q-1.16 0-2.065-.566a5.4 5.4 0 0 1-1.54-1.456 6.9 6.9 0 0 1-.976-1.994 7.3 7.3 0 0 1-.34-2.149V1.386q0-.566.396-.962t.962-.396.961.396.396.962zm46.996 4.807q0 .566-.396.962a1.3 1.3 0 0 1-.961.396 1.3 1.3 0 0 1-.962-.396 1.3 1.3 0 0 1-.396-.962V4.807q0-1.16-.141-1.16-.113 0-.792.764l-6.221 7.07a2.3 2.3 0 0 1-.904.636 3.1 3.1 0 0 1-1.16.212q-.622 0-1.159-.212a2.3 2.3 0 0 1-.905-.637l-6.221-7.069q-.65-.763-.792-.763-.141 0-.141 1.159v6.164q0 .566-.396.962a1.3 1.3 0 0 1-.961.396 1.3 1.3 0 0 1-.962-.396 1.3 1.3 0 0 1-.396-.962V2.715q0-1.131.65-1.923.651-.792 1.782-.792.68 0 1.216.34.537.339.99.82l6.503 7.408q.142.141.354.297a.73.73 0 0 0 .438.155.73.73 0 0 0 .438-.155 3 3 0 0 0 .354-.297l6.475-7.409h.029a2.9 2.9 0 0 1 .961-.848A2.54 2.54 0 0 1 120.459 0q1.131 0 1.782.792.65.792.65 1.923zm2.828-9.614q0-.565.395-.961a1.3 1.3 0 0 1 .962-.396h20.048q.566 0 .962.396.395.396.395.961 0 .566-.395.962a1.3 1.3 0 0 1-.962.396h-20.048a1.3 1.3 0 0 1-.962-.396 1.3 1.3 0 0 1-.395-.962m3.449 10.972q-.621 0-1.244-.269a3.5 3.5 0 0 1-1.103-.75 4 4 0 0 1-.791-1.159 3.6 3.6 0 0 1-.311-1.527V6.08q0-.765.438-1.018.438-.255 1.371-.255h18.974q.566 0 .961.396.396.396.396.961 0 .566-.396.962a1.3 1.3 0 0 1-.961.396h-18.069v1.385q0 .284.241.495.24.212.636.212h17.814q.566 0 .962.396.395.396.395.961 0 .566-.395.962a1.3 1.3 0 0 1-.962.396zm41.398-10.972q0-.565.395-.961a1.3 1.3 0 0 1 .962-.396q.565 0 .961.396t.396.961v8.229q0 1.188-.763 1.965-.764.778-1.951.778-.397 0-.778-.113a2.7 2.7 0 0 1-.693-.311l-12.951-7.918a24 24 0 0 0-.89-.495q-.354-.183-.58-.184-.424 0-.537.538-.113.537-.113 1.555v5.57q0 .566-.396.962a1.3 1.3 0 0 1-.962.396q-.565 0-.961-.396a1.3 1.3 0 0 1-.396-.962V2.743q0-1.188.764-1.965.763-.778 1.951-.778.396 0 .777.113.382.114.693.311l12.951 7.918q.537.31.891.494.353.184.579.184.424 0 .537-.537.114-.538.114-1.555zm6.899 1.358q-.565 0-.961-.396a1.3 1.3 0 0 1-.396-.962q0-.565.396-.961t.961-.396h18.691q1.131 0 1.923.792t.792 1.923q0 .96-.566 1.682-.566.721-1.442.947L181 9.105q-.68.17-.679.311 0 .198 1.216.198h15.976q.566 0 .962.396t.396.961-.396.962a1.3 1.3 0 0 1-.962.396h-18.691a2.62 2.62 0 0 1-1.922-.792 2.62 2.62 0 0 1-.792-1.923q0-.876.481-1.612.48-.734 1.3-.933l16.118-3.789q.452-.113.452-.283 0-.282-1.017-.282zm24.233-1.358q0-.565.396-.961a1.3 1.3 0 0 1 .962-.396h20.048q.565 0 .961.396t.396.961-.396.962a1.3 1.3 0 0 1-.961.396h-20.048a1.3 1.3 0 0 1-.962-.396 1.3 1.3 0 0 1-.396-.962m3.45 10.972q-.622 0-1.244-.269a3.5 3.5 0 0 1-1.103-.75 4 4 0 0 1-.792-1.159 3.6 3.6 0 0 1-.311-1.527V6.08q0-.765.439-1.018.438-.255 1.371-.255h18.974q.565 0 .961.396t.396.961-.396.962a1.3 1.3 0 0 1-.961.396h-18.069v1.385q0 .284.24.495t.636.212h17.815q.565 0 .961.396t.396.961-.396.962a1.3 1.3 0 0 1-.961.396zm24.855-1.358q0 .566-.396.962a1.3 1.3 0 0 1-.961.396q-.565 0-.961-.396a1.3 1.3 0 0 1-.396-.962V1.357q0-.565.396-.961t.961-.396.961.396.396.961zM253.643 0q.565 0 .961.396t.396.961-.396.962a1.3 1.3 0 0 1-.961.396h-8.37v8.256q0 .566-.396.962a1.3 1.3 0 0 1-.961.396q-.566 0-.962-.396a1.3 1.3 0 0 1-.396-.962V2.715h-8.483a1.4 1.4 0 0 1-.876-.439 1.28 1.28 0 0 1-.368-.919q0-.565.396-.961t.961-.396zM49.489 25.778a.39.39 0 0 1 .343-.174.455.455 0 0 1 .445.463q0 .183-.093.28l-.01.01-2.243 3.142a1.2 1.2 0 0 1-.417.361q-.26.14-.557.14-.277 0-.528-.125a1.1 1.1 0 0 1-.408-.347l-2.253-3.133-.088-.155a.36.36 0 0 1-.042-.173.455.455 0 0 1 .445-.463q.232 0 .352.183l2.16 2.999q.066.076.163.168a.3.3 0 0 0 .2.092q.101 0 .199-.092.098-.09.153-.169zm7.139 3.104q.315 0 .519-.12a.97.97 0 0 0 .477-.675q.042-.209.042-.381 0-.174-.041-.381a.97.97 0 0 0-.477-.675 1 1 0 0 0-.52-.12h-3.746q-.324 0-.524.12a.98.98 0 0 0-.473.675 2 2 0 0 0-.041.38q0 .174.041.382.041.207.158.38a1 1 0 0 0 .315.294q.2.12.524.12zm1.9-1.176a2.46 2.46 0 0 1-.454 1.412 1.9 1.9 0 0 1-.538.497 1.34 1.34 0 0 1-.714.192h-4.228q-.38 0-.676-.192a1.8 1.8 0 0 1-.506-.497 2.4 2.4 0 0 1-.32-.68 2.6 2.6 0 0 1-.11-.732 2.5 2.5 0 0 1 .453-1.413q.223-.303.538-.496t.714-.193h4.228q.372 0 .672.193.302.192.51.496.21.305.32.68t.111.733m2.198 2.101q-.26 0-.492-.1a1.28 1.28 0 0 1-.676-.68 1.2 1.2 0 0 1-.102-.502v-2.458a.455.455 0 0 1 .445-.463q.175 0 .31.135.135.136.135.328v2.458q0 .145.106.25.106.107.246.107h5.563q.186 0 .316.135.13.136.13.328a.455.455 0 0 1-.446.462zm7.797-2.101q0 .173.042.38.041.209.158.381a1 1 0 0 0 .315.294q.2.12.524.12h3.69q.315 0 .52-.12a.97.97 0 0 0 .477-.674q.042-.209.042-.381v-1.63a.455.455 0 0 1 .445-.462.455.455 0 0 1 .445.463v1.629q0 .366-.116.737a2.3 2.3 0 0 1-.339.675 1.9 1.9 0 0 1-.537.497 1.34 1.34 0 0 1-.714.192h-4.228q-.381 0-.677-.192a1.8 1.8 0 0 1-.505-.497 2.4 2.4 0 0 1-.32-.68 2.6 2.6 0 0 1-.112-.732v-1.63a.455.455 0 0 1 .446-.462q.184 0 .315.135.13.135.13.328zm15.41 1.639a.456.456 0 0 1-.445.462.456.456 0 0 1-.445-.463v-2.101q0-.395-.046-.395-.037 0-.26.26l-2.04 2.41a.75.75 0 0 1-.296.217 1 1 0 0 1-.38.072 1 1 0 0 1-.38-.072.75.75 0 0 1-.297-.217l-2.04-2.41q-.213-.26-.26-.26-.046 0-.046.395v2.102a.455.455 0 0 1-.445.462.455.455 0 0 1-.445-.463V26.53q0-.387.213-.656a.7.7 0 0 1 .584-.27.7.7 0 0 1 .399.116q.176.115.325.28l2.132 2.525q.047.048.116.101a.23.23 0 0 0 .144.053q.075 0 .143-.053a1 1 0 0 0 .116-.1l2.124-2.527h.009a1 1 0 0 1 .315-.289.8.8 0 0 1 .408-.106q.37 0 .584.27t.213.656zm.927-3.278a.455.455 0 0 1 .446-.463h6.573q.186 0 .316.135.13.136.13.328a.455.455 0 0 1-.446.463h-6.573a.456.456 0 0 1-.445-.463m1.132 3.74a1 1 0 0 1-.408-.091 1.2 1.2 0 0 1-.362-.256 1.4 1.4 0 0 1-.26-.395 1.3 1.3 0 0 1-.102-.52v-.868q0-.261.144-.347.144-.087.45-.087h6.221a.455.455 0 0 1 .445.463.455.455 0 0 1-.445.463h-5.924v.472q0 .096.078.169a.3.3 0 0 0 .21.072h5.84q.186 0 .316.135.13.136.13.328a.455.455 0 0 1-.446.462zm14.084-4.203q.184 0 .315.135.13.136.13.328a.46.46 0 0 1-.13.328.42.42 0 0 1-.315.135h-2.745v2.815a.456.456 0 0 1-.445.462.455.455 0 0 1-.445-.463V26.53H93.66a.45.45 0 0 1-.287-.15.45.45 0 0 1-.12-.313.455.455 0 0 1 .445-.463zm7.334 2.565q.25.164.51.351.26.189.528.41.102.078.176.178.075.102.074.237a.46.46 0 0 1-.129.328.42.42 0 0 1-.316.134.4.4 0 0 1-.157-.038 1 1 0 0 1-.158-.096q-.38-.29-.779-.564a6 6 0 0 0-.829-.483 5 5 0 0 0-.895-.332 3.7 3.7 0 0 0-.964-.125h-1.846a.34.34 0 0 0-.204.115.36.36 0 0 0-.083.241v.82a.45.45 0 0 1-.134.328.43.43 0 0 1-.626 0 .45.45 0 0 1-.13-.328v-.926q0-.24.088-.458.088-.216.236-.376a1.1 1.1 0 0 1 .798-.342h4.914a.35.35 0 0 0 .246-.101.34.34 0 0 0 .106-.256.34.34 0 0 0-.106-.25.34.34 0 0 0-.246-.106h-5.591a.42.42 0 0 1-.315-.135.45.45 0 0 1-.13-.328q0-.193.13-.328a.42.42 0 0 1 .315-.135h5.554q.26 0 .487.101a1.3 1.3 0 0 1 .667.68q.097.231.097.501a1.28 1.28 0 0 1-.764 1.181 1.2 1.2 0 0 1-.487.102zm3.106 1.176a.45.45 0 0 1-.13.328.42.42 0 0 1-.315.134.42.42 0 0 1-.316-.134.46.46 0 0 1-.129-.328v-3.278q0-.193.129-.328a.42.42 0 0 1 .316-.135q.184 0 .315.135.13.136.13.328zm.927-1.64a2.5 2.5 0 0 1 .454-1.412q.223-.303.538-.496a1.34 1.34 0 0 1 .714-.193h5.406q.184 0 .315.135.13.136.13.328a.46.46 0 0 1-.13.328.42.42 0 0 1-.315.135h-5.211q-.325 0-.524.12a1 1 0 0 0-.315.294q-.117.174-.158.38a2 2 0 0 0-.042.382q0 .173.042.38.041.209.158.381a1 1 0 0 0 .315.294q.199.12.524.12h5.211q.184 0 .315.136.13.136.13.328a.46.46 0 0 1-.13.328.42.42 0 0 1-.315.134h-5.499q-.38 0-.677-.192a1.8 1.8 0 0 1-.505-.497 2.56 2.56 0 0 1-.431-1.412m12.656-1.638q0-.193.13-.328a.42.42 0 0 1 .315-.135.42.42 0 0 1 .315.135q.13.136.13.328v1.639q0 .173.042.38.042.209.157.381a1 1 0 0 0 .316.294q.2.12.523.12h2.152a2.3 2.3 0 0 1-.223-.573 2.6 2.6 0 0 1-.074-.602v-1.64q0-.192.13-.327a.42.42 0 0 1 .315-.135.42.42 0 0 1 .315.135q.13.136.13.328v1.639q0 .172.042.376.042.203.148.38.106.18.297.3.19.12.486.12h.881q.316 0 .52-.12a1 1 0 0 0 .319-.295q.117-.173.158-.38a2 2 0 0 0 .042-.381v-1.64q0-.192.13-.327a.42.42 0 0 1 .315-.135q.185 0 .315.135.13.136.13.328v1.639q0 .366-.116.737-.116.372-.338.675a1.9 1.9 0 0 1-.538.497 1.34 1.34 0 0 1-.714.192h-5.137q-.38 0-.677-.192a1.8 1.8 0 0 1-.505-.497 2.56 2.56 0 0 1-.431-1.412zm15.345 2.102q.25.164.51.351.26.189.528.41.102.078.176.178.075.102.075.237a.46.46 0 0 1-.13.328.42.42 0 0 1-.315.134.4.4 0 0 1-.158-.038 1 1 0 0 1-.158-.096q-.38-.29-.778-.564a6 6 0 0 0-.83-.483 5 5 0 0 0-.895-.332 3.7 3.7 0 0 0-.964-.125h-1.845a.33.33 0 0 0-.204.115.35.35 0 0 0-.084.241v.82a.45.45 0 0 1-.134.328.43.43 0 0 1-.311.134.42.42 0 0 1-.315-.134.45.45 0 0 1-.13-.328v-.926q0-.24.088-.458a1.2 1.2 0 0 1 .237-.376 1.08 1.08 0 0 1 .797-.342h4.914a.35.35 0 0 0 .246-.101.34.34 0 0 0 .106-.256.34.34 0 0 0-.106-.25.34.34 0 0 0-.246-.106h-5.591a.42.42 0 0 1-.315-.135.45.45 0 0 1-.13-.328q0-.193.13-.328a.42.42 0 0 1 .315-.135h5.554q.26 0 .487.101a1.3 1.3 0 0 1 .667.68q.098.231.098.501a1.28 1.28 0 0 1-.765 1.181 1.2 1.2 0 0 1-.487.102zm3.106 1.176a.45.45 0 0 1-.13.328.42.42 0 0 1-.315.134.42.42 0 0 1-.315-.134.45.45 0 0 1-.13-.328v-3.278q0-.193.13-.328a.42.42 0 0 1 .315-.135.42.42 0 0 1 .315.135q.13.136.13.328zm2.16-1.176q-.259 0-.482-.102a1.28 1.28 0 0 1-.653-.68 1.3 1.3 0 0 1-.098-.5q0-.27.098-.502a1.28 1.28 0 0 1 .653-.68q.223-.1.482-.1h5.628q.186 0 .316.134.129.136.129.328a.46.46 0 0 1-.129.328.42.42 0 0 1-.316.135h-5.646a.35.35 0 0 0-.246.1.34.34 0 0 0-.107.256q0 .145.107.251t.246.106h5.127q.26 0 .487.101a1.24 1.24 0 0 1 .658.685q.097.236.097.506a1.28 1.28 0 0 1-.361.906 1.2 1.2 0 0 1-.394.27 1.2 1.2 0 0 1-.487.096h-5.62a.42.42 0 0 1-.315-.134.46.46 0 0 1-.13-.328q0-.193.13-.328a.42.42 0 0 1 .315-.135h5.656a.33.33 0 0 0 .241-.101.33.33 0 0 0 .102-.246.36.36 0 0 0-.102-.26.32.32 0 0 0-.241-.106zm14.103-2.565a.42.42 0 0 1 .315.135q.13.136.13.328a.45.45 0 0 1-.13.328.42.42 0 0 1-.315.135h-2.745v2.815a.46.46 0 0 1-.129.328.42.42 0 0 1-.316.134.42.42 0 0 1-.315-.134.46.46 0 0 1-.13-.328V26.53h-2.781a.46.46 0 0 1-.288-.15.45.45 0 0 1-.12-.313q0-.193.13-.328a.42.42 0 0 1 .315-.135zm5.544.463q0-.193.13-.328a.42.42 0 0 1 .316-.135q.185 0 .315.135.129.136.129.328v1.639q0 .173.042.38.042.209.158.381a1 1 0 0 0 .315.294q.2.12.524.12h2.151a2.5 2.5 0 0 1-.297-1.176v-1.638q0-.193.13-.328a.42.42 0 0 1 .315-.135q.186 0 .316.135.129.136.129.328v1.639q0 .172.042.376a1.2 1.2 0 0 0 .149.38.9.9 0 0 0 .296.3q.19.12.487.12h.881q.315 0 .519-.12a1 1 0 0 0 .32-.295q.116-.173.158-.38.04-.209.041-.381v-1.64q0-.192.13-.327a.42.42 0 0 1 .315-.135q.186 0 .316.135.129.136.129.328v1.639a2.44 2.44 0 0 1-.454 1.412 1.9 1.9 0 0 1-.538.497 1.34 1.34 0 0 1-.714.192h-5.136q-.38 0-.677-.192a1.8 1.8 0 0 1-.506-.497 2.4 2.4 0 0 1-.319-.675 2.5 2.5 0 0 1-.112-.737zm9.949 3.567a.4.4 0 0 1-.343.173.42.42 0 0 1-.315-.134.45.45 0 0 1-.13-.328q0-.184.093-.28l2.253-3.152q.157-.222.417-.362t.556-.14q.279 0 .529.126.25.125.408.347l2.253 3.133q.046.077.088.154.042.078.042.174a.46.46 0 0 1-.13.328.42.42 0 0 1-.316.134.4.4 0 0 1-.352-.183l-2.16-2.998a2 2 0 0 0-.162-.169.3.3 0 0 0-.2-.091.3.3 0 0 0-.199.091 1.2 1.2 0 0 0-.153.169zm12.452-4.03a.42.42 0 0 1 .315.135q.13.136.13.328a.45.45 0 0 1-.13.328.42.42 0 0 1-.315.135h-2.744v2.815a.45.45 0 0 1-.13.328.42.42 0 0 1-.315.134.42.42 0 0 1-.316-.134.46.46 0 0 1-.129-.328V26.53h-2.782a.45.45 0 0 1-.287-.15.44.44 0 0 1-.121-.313q0-.193.13-.328a.42.42 0 0 1 .315-.135zm1.15 2.102a2.5 2.5 0 0 1 .454-1.413q.223-.303.538-.496a1.34 1.34 0 0 1 .714-.193h5.405q.186 0 .316.135.129.136.129.328a.46.46 0 0 1-.129.328.42.42 0 0 1-.316.135h-5.21q-.325 0-.524.12a1 1 0 0 0-.315.294q-.117.174-.158.38a2 2 0 0 0-.042.382q0 .173.042.38.041.209.158.381a1 1 0 0 0 .315.294q.199.12.524.12h5.21q.186 0 .316.136.129.136.129.328a.46.46 0 0 1-.129.328.42.42 0 0 1-.316.134h-5.498q-.38 0-.677-.192a1.8 1.8 0 0 1-.505-.497 2.56 2.56 0 0 1-.431-1.412m15.743 1.639a.46.46 0 0 1-.129.328.42.42 0 0 1-.316.134.42.42 0 0 1-.315-.134.46.46 0 0 1-.13-.328V28.17h-5.479v1.176a.45.45 0 0 1-.13.328.42.42 0 0 1-.315.134.42.42 0 0 1-.316-.134.46.46 0 0 1-.129-.328v-3.278q0-.193.129-.328a.42.42 0 0 1 .316-.135q.184 0 .315.135.13.136.13.328v1.176h5.479v-1.176q0-.193.13-.328a.42.42 0 0 1 .315-.135q.186 0 .316.135.129.136.129.328zm.928-3.278q0-.193.129-.328a.42.42 0 0 1 .316-.135h6.573q.186 0 .316.135.129.136.129.328a.46.46 0 0 1-.129.328.42.42 0 0 1-.316.135h-6.573a.42.42 0 0 1-.316-.135.46.46 0 0 1-.129-.328m1.131 3.74a1 1 0 0 1-.408-.091 1.2 1.2 0 0 1-.362-.256 1.4 1.4 0 0 1-.259-.395 1.3 1.3 0 0 1-.102-.52v-.868q0-.261.143-.347.144-.087.45-.087h6.221q.186 0 .316.135.129.135.129.328a.46.46 0 0 1-.129.328.42.42 0 0 1-.316.135h-5.924v.472q0 .096.079.169a.3.3 0 0 0 .208.072h5.841q.186 0 .316.135.129.136.129.328a.46.46 0 0 1-.129.328.42.42 0 0 1-.316.134zm8.492-1.64q-.26 0-.482-.1a1.26 1.26 0 0 1-.654-.68 1.3 1.3 0 0 1-.097-.502 1.28 1.28 0 0 1 .361-.906q.167-.174.39-.275.222-.1.482-.101h5.628a.42.42 0 0 1 .315.135q.13.135.13.328a.45.45 0 0 1-.13.328.42.42 0 0 1-.315.134h-5.647a.35.35 0 0 0-.245.102.34.34 0 0 0-.107.255q0 .145.107.25.107.108.245.107h5.128q.26 0 .486.101.228.102.394.275.168.174.265.41t.097.506a1.28 1.28 0 0 1-.362.906 1.2 1.2 0 0 1-.394.27 1.2 1.2 0 0 1-.486.096h-5.619a.42.42 0 0 1-.315-.135.45.45 0 0 1-.13-.327q0-.193.13-.328a.42.42 0 0 1 .315-.135h5.656a.33.33 0 0 0 .241-.101.33.33 0 0 0 .102-.246.36.36 0 0 0-.102-.26.33.33 0 0 0-.241-.107z" fill="#000"/>
</svg>
